<svg id="SvgjsSvg1047" width="288" height="288" xmlns="http://www.w3.org/2000/svg" version="1.1" xmlns:xlink="http://www.w3.org/1999/xlink" xmlns:svgjs="http://svgjs.com/svgjs"><defs id="SvgjsDefs1048"></defs><g id="SvgjsG1049"><svg xmlns="http://www.w3.org/2000/svg" viewBox="0 0 32 32" width="288" height="288"><g data-name="Layer 2" fill="#ffffff" class="color000 svgShape"><path d="M24,29H8a5,5,0,0,1-5-5V10A5,5,0,0,1,8,5H24a5,5,0,0,1,5,5V24A5,5,0,0,1,24,29ZM8,7a3,3,0,0,0-3,3V24a3,3,0,0,0,3,3H24a3,3,0,0,0,3-3V10a3,3,0,0,0-3-3Z" fill="#ffffff" class="color000 svgShape"></path><path d="M24 25H20a1 1 0 01-1-1V20a1 1 0 011-1h4a1 1 0 011 1v4A1 1 0 0124 25zm-3-2h2V21H21zM28 13H4a1 1 0 010-2H28a1 1 0 010 2zM11 9a1 1 0 01-1-1V4a1 1 0 012 0V8A1 1 0 0111 9zM21 9a1 1 0 01-1-1V4a1 1 0 012 0V8A1 1 0 0121 9z" fill="#ffffff" class="color000 svgShape"></path></g><rect width="32" height="32" fill="none"></rect></svg></g></svg>