<svg id="SvgjsSvg1028" width="288" height="288" xmlns="http://www.w3.org/2000/svg" version="1.1" xmlns:xlink="http://www.w3.org/1999/xlink" xmlns:svgjs="http://svgjs.com/svgjs"><defs id="SvgjsDefs1029"></defs><g id="SvgjsG1030"><svg xmlns="http://www.w3.org/2000/svg" viewBox="0 0 512 512" width="288" height="288"><polygon points="445.055 384.794 445.055 221.864 418.805 234.989 418.805 384.777 401.301 429.785 462.551 429.785 445.055 384.794" fill="#ffffff" class="color000 svgShape"></polygon><path d="M229.0648,306.3708l-107.7643-53.88v53.7754c0,36.2433,58.7634,65.625,131.25,65.625,72.4887,0,131.25-29.3817,131.25-65.625V252.49L276.0277,306.3741C257.5813,313.681,247.5133,313.6789,229.0648,306.3708Z" fill="#ffffff" class="color000 svgShape"></path><path d="M264.2912,282.8969l186.5207-93.26c6.4579-3.2289,6.4579-8.5107,0-11.74l-186.5207-93.26c-6.4556-3.2289-17.0214-3.2289-23.4793,0l-186.5207,93.26c-6.4556,3.2289-6.4556,8.5107,0,11.74l186.5207,93.26C247.27,286.1258,257.8356,286.1258,264.2912,282.8969Z" fill="#ffffff" class="color000 svgShape"></path></svg></g></svg>