<svg id="SvgjsSvg1018" width="288" height="288" xmlns="http://www.w3.org/2000/svg" version="1.1" xmlns:xlink="http://www.w3.org/1999/xlink" xmlns:svgjs="http://svgjs.com/svgjs"><defs id="SvgjsDefs1019"></defs><g id="SvgjsG1020"><svg xmlns="http://www.w3.org/2000/svg" enable-background="new 0 0 1000 1000" viewBox="0 0 1000 1000" width="288" height="288"><path d="M408.9,595.5l-249.7-86.3v179.6c0,79,61.8,109.9,140.3,149.1c4.2,2,103.3,49.4,200.5,49.4c101.8,0,196.7-47.6,202-50.3c71.2-36,138.5-69.9,138.5-148.3V509.2l-251.4,87.1C537.9,619.2,463.9,620,408.9,595.5z M792.9,576.1v112.7c0,46.8-40.6,69.5-113.7,106.4c-0.9,0.5-88.7,44.5-179.1,44.5c-86.1,0-178.8-44.2-179.5-44.6c-78.8-39.3-113.6-58.8-113.6-106.3V576.1l184.4,63.7c63,28.3,155.9,27.6,215.4,0.8L792.9,576.1z" fill="#ffffff" class="color000 svgShape"></path><path d="M946.6 283.5l-365.7-154c-21.8-10.8-50.6-16.8-80.9-16.8-30.4 0-59.1 6-79.5 16.2L51.9 284.1C15.4 302.3 10 326.9 10 339.9c0 13 5.5 37.5 42 55.5l368.7 127.2c43.1 20 115.5 20 158.6 0l277-95.7V485c0 29.9 24.5 53.3 55.9 53.3 30.4 0 55.1-23.9 55.1-53.3V382.5c20-16 22.9-34 22.6-44.2C989.6 325.9 983.7 302.1 946.6 283.5zM931.7 349.3l-12 6.9V485c0 7.4-15.7 7.5-15.7 0V360L562.5 478l-2.5 1c-30.5 14.5-89.7 14.5-120.1 0L71.8 352.1c-11.7-6.1-14.2-11.4-14.2-12.3 0-.9 2.7-6.6 14.2-12.4l368.5-155.2c30.2-15 87.9-15.6 120.8.6l365.6 153.9c12.4 6.2 15.5 11.9 15.7 13C942.2 340.5 940.1 344.5 931.7 349.3zM912.2 612.4c-17.9 0-32.6 13.4-34.1 30.3l-15.3 59.5-.5 4.5c0 26.5 21.9 47.3 49.9 47.3 27.1 0 49.2-21.3 49.2-47.3l-15.8-63.9C944.3 625.8 929.8 612.4 912.2 612.4zM912.2 718.3c-7.3 0-13.1-4.2-14.1-9.9l13.7-53.3 13.6 53.3C924.6 713.9 919 718.3 912.2 718.3z" fill="#ffffff" class="color000 svgShape"></path></svg></g></svg>