<svg width="512" height="512" viewBox="0 0 512 512" fill="none" xmlns="http://www.w3.org/2000/svg">
<mask id="mask0_538_962" style="mask-type:alpha" maskUnits="userSpaceOnUse" x="0" y="0" width="512" height="512">
<path d="M256 0C115.2 0 0 115.2 0 256C0 396.8 115.2 512 256 512C396.8 512 512 396.8 512 256C512 115.2 396.8 0 256 0ZM422.4 169.6C435.2 169.6 444.8 179.2 457.6 179.2C448 192 406.4 192 393.6 176C403.2 172.8 409.6 169.6 422.4 169.6ZM32 256C32 243.2 32 230.4 35.2 214.4C38.4 214.4 41.6 217.6 44.8 217.6C44.8 217.6 48 220.8 48 224C48 233.6 57.6 240 64 240C89.6 243.2 99.2 265.6 121.6 272C128 275.2 124.8 281.6 121.6 288C102.4 313.6 118.4 332.8 134.4 348.8C150.4 361.6 150.4 374.4 153.6 393.6C153.6 416 156.8 441.6 166.4 464C86.4 425.6 32 348.8 32 256ZM256 480C233.6 480 208 476.8 188.8 470.4C185.6 464 185.6 457.6 188.8 451.2C201.6 425.6 214.4 403.2 230.4 380.8C236.8 374.4 243.2 368 243.2 358.4C243.2 352 246.4 342.4 249.6 336C259.2 320 256 310.4 243.2 307.2C217.6 300.8 204.8 278.4 185.6 268.8C166.4 259.2 147.2 252.8 131.2 262.4C124.8 265.6 115.2 268.8 115.2 259.2C115.2 246.4 99.2 236.8 102.4 224C99.2 224 96 224 92.8 227.2C89.6 230.4 86.4 233.6 80 230.4C73.6 224 76.8 217.6 76.8 211.2C80 204.8 83.2 201.6 89.6 198.4C102.4 195.2 115.2 195.2 121.6 211.2C131.2 182.4 150.4 166.4 169.6 153.6C169.6 153.6 195.2 131.2 198.4 131.2C201.6 131.2 204.8 137.6 211.2 140.8C217.6 140.8 220.8 140.8 220.8 134.4C224 118.4 214.4 99.2 201.6 96C201.6 92.8 204.8 92.8 204.8 92.8C214.4 89.6 227.2 83.2 224 73.6C224 60.8 211.2 54.4 198.4 54.4C192 54.4 185.6 54.4 179.2 57.6C166.4 64 150.4 70.4 131.2 70.4C166.4 44.8 211.2 32 256 32C265.6 32 272 32 281.6 32C262.4 35.2 243.2 41.6 230.4 48C249.6 51.2 252.8 60.8 246.4 76.8C243.2 83.2 246.4 89.6 252.8 92.8C259.2 96 265.6 96 268.8 89.6C275.2 80 288 76.8 297.6 73.6C310.4 70.4 320 64 329.6 51.2C329.6 48 332.8 48 336 44.8C355.2 51.2 374.4 64 393.6 76.8C390.4 76.8 390.4 80 387.2 80C380.8 86.4 371.2 89.6 380.8 102.4C384 108.8 380.8 112 377.6 115.2C371.2 118.4 368 115.2 364.8 112C361.6 108.8 361.6 102.4 352 102.4C348.8 108.8 339.2 112 339.2 121.6C355.2 121.6 352 134.4 355.2 144C336 147.2 329.6 156.8 339.2 172.8C342.4 179.2 336 182.4 332.8 185.6C320 204.8 307.2 217.6 307.2 240C307.2 262.4 323.2 284.8 348.8 281.6C377.6 278.4 377.6 278.4 387.2 304C387.2 307.2 390.4 310.4 390.4 313.6C393.6 320 396.8 326.4 393.6 332.8C384 358.4 396.8 377.6 406.4 396.8C409.6 403.2 412.8 406.4 416 409.6C374.4 454.4 320 480 256 480Z" fill="#444444"/>
</mask>
<g mask="url(#mask0_538_962)">
<rect width="512" height="512" fill="#6FB1F6"/>
</g>
</svg>
