<svg width="50" height="37" viewBox="0 0 50 37" fill="none" xmlns="http://www.w3.org/2000/svg">
<path d="M47.7111 17.3085C48.3043 17.993 48.3043 19.007 47.7111 19.6915C45.2182 22.5678 42.5721 24.9424 39.0568 26.6994C35.5486 28.4528 31.1126 29.6218 25 29.9981C18.8874 29.6218 14.4513 28.4528 10.9432 26.6994C7.42793 24.9424 4.78178 22.5678 2.28891 19.6915C1.6957 19.007 1.6957 17.993 2.28891 17.3085C4.78178 14.4322 7.42793 12.0576 10.9432 10.3006C14.4513 8.54725 18.8874 7.37822 25 7.00186C31.1126 7.37822 35.5487 8.54725 39.0568 10.3006C42.5721 12.0576 45.2182 14.4322 47.7111 17.3085Z" stroke="#767676" stroke-width="2"/>
<circle cx="24.583" cy="18.917" r="5.25" stroke="#767676" stroke-width="2"/>
<line x1="8.3335" y1="34.9413" x2="42.2746" y2="1.00013" stroke="#767676" stroke-width="2" stroke-linecap="round"/>
</svg>
