<svg width="50" height="25" viewBox="0 0 50 25" fill="none" xmlns="http://www.w3.org/2000/svg">
<path d="M47.7111 11.3085C48.3043 11.993 48.3043 13.007 47.7111 13.6915C45.2182 16.5678 42.5721 18.9424 39.0568 20.6994C35.5487 22.4528 31.1126 23.6218 25 23.9981C18.8874 23.6218 14.4513 22.4528 10.9432 20.6994C7.42793 18.9424 4.78178 16.5678 2.28891 13.6915C1.6957 13.007 1.6957 11.993 2.28891 11.3085C4.78178 8.43224 7.42793 6.05759 10.9432 4.30064C14.4513 2.54725 18.8874 1.37822 25 1.00186C31.1126 1.37822 35.5487 2.54725 39.0568 4.30064C42.5721 6.05759 45.2182 8.43224 47.7111 11.3085Z" stroke="#767676" stroke-width="2"/>
<circle cx="24.5835" cy="12.917" r="5.25" stroke="#767676" stroke-width="2"/>
</svg>
