<svg width="1577" height="528" viewBox="0 0 1577 528" fill="none" xmlns="http://www.w3.org/2000/svg">
<g clip-path="url(#clip0_546_17)">
<path d="M596.2 193C576.2 193 566.2 200.533 566.2 215.6C566.2 219.733 566.667 223.2 567.6 226C568.667 228.667 570.467 231 573 233C575.667 234.867 579.267 236.467 583.8 237.8C588.333 239.133 594.133 240.6 601.2 242.2C608.267 243.8 614.2 245.533 619 247.4C623.933 249.267 627.933 251.6 631 254.4C634.067 257.2 636.267 260.6 637.6 264.6C639.067 268.6 639.8 273.467 639.8 279.2C639.8 307.6 625.067 321.8 595.6 321.8C590.667 321.8 585.133 321.467 579 320.8C573 320.267 566.333 319.467 559 318.4L551.8 317.4L553.4 304.6C571.667 307 585.467 308.2 594.8 308.2C614.533 308.2 624.4 298.933 624.4 280.4C624.4 276.667 623.867 273.533 622.8 271C621.867 268.333 620.2 266.133 617.8 264.4C615.533 262.533 612.4 261 608.4 259.8C604.533 258.467 599.6 257.2 593.6 256C585.867 254.4 579.267 252.6 573.8 250.6C568.333 248.6 563.867 246.133 560.4 243.2C556.933 240.133 554.4 236.467 552.8 232.2C551.333 227.933 550.6 222.733 550.6 216.6C550.6 191.8 565.467 179.4 595.2 179.4C604.933 179.4 616.6 180.4 630.2 182.4L637 183.4L635.6 196.4C626.267 195.333 618.333 194.533 611.8 194C605.267 193.333 600.067 193 596.2 193ZM694.598 195.4V320H709.798V195.4H751.998V181.6H651.998V195.4H694.598ZM875.472 251.8C875.472 264.2 874.539 274.8 872.672 283.6C870.939 292.4 867.939 299.667 863.672 305.4C859.405 311.133 853.805 315.333 846.872 318C839.939 320.667 831.272 322 820.872 322C810.472 322 801.739 320.6 794.672 317.8C787.739 315 782.139 310.733 777.872 305C773.605 299.267 770.539 291.933 768.672 283C766.939 274.067 766.072 263.533 766.072 251.4C766.072 239.267 767.005 228.733 768.872 219.8C770.739 210.733 773.805 203.267 778.072 197.4C782.339 191.4 787.939 186.933 794.872 184C801.939 181.067 810.539 179.6 820.672 179.6C830.939 179.6 839.539 181.067 846.472 184C853.405 186.8 859.005 191.2 863.272 197.2C867.672 203.067 870.805 210.533 872.672 219.6C874.539 228.667 875.472 239.4 875.472 251.8ZM781.872 251.4C781.872 261.533 782.472 270.2 783.672 277.4C784.872 284.6 786.939 290.533 789.872 295.2C792.805 299.733 796.805 303.067 801.872 305.2C806.939 307.333 813.272 308.4 820.872 308.4C828.472 308.4 834.739 307.4 839.672 305.4C844.739 303.267 848.672 299.933 851.472 295.4C854.405 290.867 856.472 285 857.672 277.8C858.872 270.6 859.472 261.933 859.472 251.8C859.472 241.533 858.872 232.733 857.672 225.4C856.472 218.067 854.339 212 851.272 207.2C848.339 202.4 844.339 198.867 839.272 196.6C834.339 194.333 828.139 193.2 820.672 193.2C813.205 193.2 806.939 194.333 801.872 196.6C796.939 198.867 792.939 202.4 789.872 207.2C786.939 211.867 784.872 217.867 783.672 225.2C782.472 232.533 781.872 241.267 781.872 251.4ZM958.303 267H919.103V320H903.703V181.6H954.903C969.703 181.6 980.77 185 988.103 191.8C995.436 198.467 999.103 209.067 999.103 223.6C999.103 245.067 990.636 258.467 973.703 263.8L1000.3 320H983.303L958.303 267ZM919.103 253.4H955.103C973.903 253.4 983.303 243.667 983.303 224.2C983.303 204.867 973.836 195.2 954.903 195.2H919.103V253.4ZM1071.55 261.8L1115.55 181.6H1098.15L1063.75 246.4L1029.35 181.6H1011.95L1056.15 261.8V320H1071.55V261.8ZM1159.96 320V214.8H1162.96L1189.56 314H1217.16L1243.76 214.8H1246.76V320H1274.36V184H1227.36L1203.36 283.2L1179.36 184H1132.36V320H1159.96ZM1320.24 320L1325.64 295.4H1373.24L1378.64 320H1406.24L1375.64 184H1323.24L1292.64 320H1320.24ZM1354.24 206.8L1368.04 271.4H1330.84L1344.64 206.8H1354.24ZM1474.35 280.4H1451.95V320H1424.35V184H1474.35C1506.62 184 1522.75 199.733 1522.75 231.2C1522.75 247.2 1518.69 259.4 1510.55 267.8C1502.42 276.2 1490.35 280.4 1474.35 280.4ZM1451.95 207.6V256.8H1474.15C1487.89 256.8 1494.75 248.267 1494.75 231.2C1494.75 222.8 1493.09 216.8 1489.75 213.2C1486.55 209.467 1481.35 207.6 1474.15 207.6H1451.95Z" fill="#6FB1F6"/>
<mask id="mask0_546_17" style="mask-type:alpha" maskUnits="userSpaceOnUse" x="82" y="64" width="400" height="400">
<path d="M282 64C172 64 82 154 82 264C82 374 172 464 282 464C392 464 482 374 482 264C482 154 392 64 282 64ZM412 196.5C422 196.5 429.5 204 439.5 204C432 214 399.5 214 389.5 201.5C397 199 402 196.5 412 196.5ZM107 264C107 254 107 244 109.5 231.5C112 231.5 114.5 234 117 234C117 234 119.5 236.5 119.5 239C119.5 246.5 127 251.5 132 251.5C152 254 159.5 271.5 177 276.5C182 279 179.5 284 177 289C162 309 174.5 324 187 336.5C199.5 346.5 199.5 356.5 202 371.5C202 389 204.5 409 212 426.5C149.5 396.5 107 336.5 107 264ZM282 439C264.5 439 244.5 436.5 229.5 431.5C227 426.5 227 421.5 229.5 416.5C239.5 396.5 249.5 379 262 361.5C267 356.5 272 351.5 272 344C272 339 274.5 331.5 277 326.5C284.5 314 282 306.5 272 304C252 299 242 281.5 227 274C212 266.5 197 261.5 184.5 269C179.5 271.5 172 274 172 266.5C172 256.5 159.5 249 162 239C159.5 239 157 239 154.5 241.5C152 244 149.5 246.5 144.5 244C139.5 239 142 234 142 229C144.5 224 147 221.5 152 219C162 216.5 172 216.5 177 229C184.5 206.5 199.5 194 214.5 184C214.5 184 234.5 166.5 237 166.5C239.5 166.5 242 171.5 247 174C252 174 254.5 174 254.5 169C257 156.5 249.5 141.5 239.5 139C239.5 136.5 242 136.5 242 136.5C249.5 134 259.5 129 257 121.5C257 111.5 247 106.5 237 106.5C232 106.5 227 106.5 222 109C212 114 199.5 119 184.5 119C212 99 247 89 282 89C289.5 89 294.5 89 302 89C287 91.5 272 96.5 262 101.5C277 104 279.5 111.5 274.5 124C272 129 274.5 134 279.5 136.5C284.5 139 289.5 139 292 134C297 126.5 307 124 314.5 121.5C324.5 119 332 114 339.5 104C339.5 101.5 342 101.5 344.5 99C359.5 104 374.5 114 389.5 124C387 124 387 126.5 384.5 126.5C379.5 131.5 372 134 379.5 144C382 149 379.5 151.5 377 154C372 156.5 369.5 154 367 151.5C364.5 149 364.5 144 357 144C354.5 149 347 151.5 347 159C359.5 159 357 169 359.5 176.5C344.5 179 339.5 186.5 347 199C349.5 204 344.5 206.5 342 209C332 224 322 234 322 251.5C322 269 334.5 286.5 354.5 284C377 281.5 377 281.5 384.5 301.5C384.5 304 387 306.5 387 309C389.5 314 392 319 389.5 324C382 344 392 359 399.5 374C402 379 404.5 381.5 407 384C374.5 419 332 439 282 439V439Z" fill="#444444"/>
</mask>
<g mask="url(#mask0_546_17)">
<rect x="82" y="64" width="400" height="400" fill="#6FB1F6"/>
</g>
</g>
<defs>
<clipPath id="clip0_546_17">
<rect width="1577" height="528" fill="white"/>
</clipPath>
</defs>
</svg>
