<svg id="SvgjsSvg1040" width="288" height="288" xmlns="http://www.w3.org/2000/svg" version="1.1" xmlns:xlink="http://www.w3.org/1999/xlink" xmlns:svgjs="http://svgjs.com/svgjs"><defs id="SvgjsDefs1041"></defs><g id="SvgjsG1042"><svg xmlns="http://www.w3.org/2000/svg" xmlns:svgjs="http://svgjs.com/svgjs" xmlns:xlink="http://www.w3.org/1999/xlink" width="288" height="288"><svg xmlns="http://www.w3.org/2000/svg" width="288" height="288" viewBox="0 0 32 32"><g fill="#ffffff" class="color000 svgShape colorfff" data-name="Layer 19"><path fill="#ffffff" d="M16 17a8 8 0 118-8A8 8 0 0116 17zM16 3a6 6 0 106 6A6 6 0 0016 3zM23 31H9a5 5 0 01-5-5V22a1 1 0 01.49-.86l5-3a1 1 0 011 1.72L6 22.57V26a3 3 0 003 3H23a3 3 0 003-3V22.57l-4.51-2.71a1 1 0 111-1.72l5 3A1 1 0 0128 22v4A5 5 0 0123 31z" class="color101820 svgShape"></path></g></svg></svg></g></svg>