<svg id="SvgjsSvg1014" width="288" height="288" xmlns="http://www.w3.org/2000/svg" version="1.1" xmlns:xlink="http://www.w3.org/1999/xlink" xmlns:svgjs="http://svgjs.com/svgjs"><defs id="SvgjsDefs1015"></defs><g id="SvgjsG1016"><svg xmlns="http://www.w3.org/2000/svg" enable-background="new 0 0 329.536 329.536" viewBox="0 0 329.536 329.536" width="288" height="288"><path d="m276.646,287.773l-43.816-114.604 33.376-15.905c5.22-1.74 6.96-6.96 5.22-10.441l-13.921-38.283 13.921-38.283c1.74-3.48-1.74-8.701-5.22-10.441l-36.543-17.401-17.402-36.542c-1.74-5.22-6.96-6.96-10.441-5.22l-38.283,13.921-38.282-13.921c-3.48-1.74-8.701,1.74-10.441,5.22l-17.401,36.542-36.543,17.402c-5.22,1.74-6.96,6.96-5.22,10.441l13.921,38.283-13.921,38.282c-1.74,3.48 1.74,8.701 5.22,10.441l32.889,15.661-41.589,113.108c0,3.48 0,6.96 1.74,8.701 1.74,3.48 5.22,3.48 8.701,3.48l41.763-6.96 26.102,33.062c1.74,1.74 3.48,3.48 6.96,3.48h1.74c3.48,0 5.22-1.74 6.96-5.22l17.627-47.923 18.915,49.663c1.74,3.48 3.48,5.22 6.96,5.22h1.74c3.48,0 5.22-1.74 6.96-3.48l26.102-33.062 41.763,6.96c3.48,0 6.96-1.74 8.701-3.48 1.742-1.741 3.482-5.221 1.742-8.701zm-200.114-215.775l33.062-15.661c1.74,0 3.48-1.74 3.48-3.48l15.661-33.062 33.062,12.181c1.74,0 3.48,0 5.22,0l33.062-12.181 15.661,33.062c0,1.74 1.74,3.48 3.48,3.48l33.062,15.661-12.181,33.062c0,1.74 0,3.48 0,5.22l12.181,33.062-33.062,15.661c-1.74,0-3.48,1.74-3.48,3.48l-15.661,33.062-33.062-12.181c-1.74,0-1.74,0-3.48,0-1.74,0-1.74,0-1.74,0l-33.062,12.181-15.661-33.062c0-1.74-1.74-3.48-3.48-3.48l-33.062-15.661 12.181-33.062c0-1.74 0-3.48 0-5.22l-12.181-33.062zm59.164,231.436l-20.882-26.102c-1.74-3.48-5.22-3.48-8.701-3.48l-33.062,5.22 32.227-87.893 9.536,20.029c1.74,5.22 6.96,6.96 10.441,5.22l38.283-13.921 8.091,2.941-35.933,97.986zm85.266-31.322c-3.48,0-6.96,1.74-8.701,3.48l-20.882,26.102-18.671-51.368 14.426-39.24 14.687,5.342c1.74,0 1.74,0 3.48,0 1.74,0 5.22-1.74 6.96-5.22l9.901-20.777 31.861,86.901-33.061-5.22z" fill="#ffffff" class="color000 svgShape"></path></svg></g></svg>