<svg xmlns="http://www.w3.org/2000/svg" xmlns:xlink="http://www.w3.org/1999/xlink" style="" version="1.1" xml:space="preserve" width="46.907103850766134" height="51.092896149233866"><rect id="backgroundrect" width="100%" height="100%" x="0" y="0" fill="none" stroke="none" style="" class=""/><g class="currentLayer" style=""><title>Layer 1</title><g id="Layer_8_copy_4_3_" class="" stroke="#767676" fill="#767676" fill-opacity="1" stroke-opacity="1"><path d="M3.6228358154296885,2.676835815429687 v8.294 c0,0.5710000000000001 0.30500000000000005,1.1 0.8,1.385 l20.212,11.669 c1.066,0.6160000000000001 1.066,2.1550000000000002 0,2.771 L4.422835815429689,38.46483581542969 c-0.49500000000000005,0.28600000000000003 -0.8,0.8140000000000001 -0.8,1.385 v8.294 c0,1.231 1.3330000000000002,2.001 2.399,1.385 l39.375,-22.733 c1.066,-0.6160000000000001 1.066,-2.1550000000000002 0,-2.771 L6.021835815429689,1.2908358154296877 C4.955835815429687,0.6758358154296857 3.6228358154296885,1.4448358154296876 3.6228358154296885,2.676835815429687 z" id="svg_1" stroke="#767676" fill="#767676" fill-opacity="1"/><path d="M45.39683581542968,24.02483581542969 L6.021835815429689,1.2908358154296877 c-0.19300000000000003,-0.11200000000000002 -0.3950000000000001,-0.16400000000000003 -0.5970000000000001,-0.19000000000000003 l37.972,21.923000000000002 c1.066,0.6160000000000001 1.066,2.1550000000000002 0,2.771 L4.021835815429689,48.52883581542969 c-0.1,0.05800000000000001 -0.20500000000000002,0.09200000000000003 -0.30800000000000005,0.126 c0.30800000000000005,0.914 1.401,1.3980000000000001 2.308,0.8740000000000001 l39.375,-22.733 C46.46383581542969,26.17983581542969 46.46383581542969,24.639835815429684 45.39683581542968,24.02483581542969 z" id="svg_2" stroke="#767676" fill="#767676" fill-opacity="1"/><path d="M3.6228358154296885,2.676835815429687 v8.294 c0,0.5710000000000001 0.30500000000000005,1.1 0.8,1.385 l20.212,11.669 c1.066,0.6160000000000001 1.066,2.1550000000000002 0,2.771 L4.422835815429689,38.46483581542969 c-0.49500000000000005,0.28600000000000003 -0.8,0.8140000000000001 -0.8,1.385 v8.294 c0,1.231 1.3330000000000002,2.001 2.399,1.385 l39.375,-22.733 c1.066,-0.6160000000000001 1.066,-2.1550000000000002 0,-2.771 L6.021835815429689,1.2908358154296877 C4.955835815429687,0.6758358154296857 3.6228358154296885,1.4448358154296876 3.6228358154296885,2.676835815429687 z" style="stroke-miterlimit: 10;" id="svg_3" stroke="#767676" fill="#767676" fill-opacity="1"/></g></g></svg>